<?xml version="1.0" standalone="no"?>
<!DOCTYPE svg PUBLIC "-//W3C//DTD SVG 20010904//EN"
 "http://www.w3.org/TR/2001/REC-SVG-20010904/DTD/svg10.dtd">
<svg version="1.0" xmlns="http://www.w3.org/2000/svg"
 width="1009.000000pt" height="1003.000000pt" viewBox="0 0 1009.000000 1003.000000"
 preserveAspectRatio="xMidYMid meet">
<metadata>
Created by potrace 1.16, written by Peter Selinger 2001-2019
</metadata>
<g transform="translate(0.000000,1003.000000) scale(0.100000,-0.100000)"
fill="#000000" stroke="none">
<path d="M4695 10005 c-324 -30 -742 -104 -1040 -185 -1394 -379 -2423 -1217
-3050 -2485 -327 -660 -526 -1357 -585 -2050 -15 -183 -12 -616 6 -806 81
-857 409 -1675 969 -2417 758 -1006 1678 -1642 2757 -1906 458 -113 1026 -167
1602 -153 318 8 556 41 901 126 701 173 1261 437 1832 864 278 208 608 492
650 561 34 54 80 102 112 116 40 17 414 556 591 850 296 492 541 1217 627
1850 15 113 18 201 17 545 0 400 -8 549 -40 793 -93 714 -352 1405 -762 2032
-207 317 -461 646 -547 710 -11 8 -67 59 -125 115 -924 880 -1916 1349 -3055
1445 -164 13 -689 10 -860 -5z m242 -1588 l24 -24 -1 -311 c0 -195 3 -320 10
-331 13 -25 74 -45 113 -37 17 4 41 16 54 28 23 21 23 22 23 322 0 327 2 340
55 365 26 13 49 13 183 -2 889 -99 1609 -411 2165 -937 l97 -92 -31 -37 c-17
-20 -128 -133 -245 -252 -132 -134 -214 -224 -214 -236 0 -31 54 -98 94 -117
60 -28 47 -39 435 368 92 97 105 107 124 98 55 -25 114 -81 200 -189 52 -65
109 -131 127 -148 72 -68 119 -147 295 -499 240 -479 391 -988 412 -1383 7
-138 -8 -189 -64 -224 -35 -22 -45 -23 -309 -23 -252 -1 -273 -2 -293 -20 -45
-41 -35 -144 17 -165 18 -7 88 -11 192 -10 403 5 376 6 400 -16 86 -78 113
-293 81 -639 -12 -128 -17 -152 -37 -175 l-22 -26 -3724 -6 c-2047 -3 -3735
-9 -3749 -13 -24 -7 -27 -4 -47 42 -46 106 -56 176 -57 372 0 147 4 198 18
250 22 82 62 168 90 198 l22 23 265 -7 c253 -6 266 -6 289 13 17 14 25 32 29
71 4 47 2 54 -26 82 -30 30 -31 30 -139 29 -59 -1 -190 -4 -291 -8 l-183 -6
-25 26 c-41 43 -45 85 -24 272 52 449 145 793 320 1177 141 311 416 733 596
917 58 59 64 63 107 63 l46 0 218 -216 c119 -119 228 -220 241 -225 36 -14 68
-1 107 42 60 66 58 69 -154 283 -214 217 -251 263 -251 314 0 53 32 94 138
180 609 489 1242 750 2052 847 74 9 137 18 140 21 12 13 85 -6 107 -29z"/>
<path d="M4765 7079 c-443 -53 -888 -242 -1240 -526 -129 -104 -330 -311 -426
-438 -228 -305 -395 -675 -470 -1046 -52 -260 -43 -347 42 -391 36 -18 103
-19 2388 -19 2554 1 2393 -3 2438 55 30 37 36 90 23 187 -97 738 -499 1384
-1111 1786 -293 192 -613 315 -989 379 -114 19 -534 28 -655 13z"/>
</g>
</svg>
