<?xml version="1.0" standalone="no"?>
<!DOCTYPE svg PUBLIC "-//W3C//DTD SVG 20010904//EN"
 "http://www.w3.org/TR/2001/REC-SVG-20010904/DTD/svg10.dtd">
<svg version="1.0" xmlns="http://www.w3.org/2000/svg"
 width="196.000000pt" height="196.000000pt" viewBox="0 0 196.000000 196.000000"
 preserveAspectRatio="xMidYMid meet">
<metadata>
Created by potrace 1.16, written by Peter Selinger 2001-2019
</metadata>
<g transform="translate(0.000000,196.000000) scale(0.100000,-0.100000)"
fill="#000000" stroke="none">
<path d="M602 1937 c-21 -22 -22 -32 -22 -201 0 -175 0 -177 25 -201 l24 -25
346 0 346 0 24 25 c25 24 25 26 25 203 0 174 -1 179 -23 200 -23 22 -28 22
-373 22 l-351 0 -21 -23z m720 -24 c16 -14 18 -34 18 -175 0 -145 -2 -160 -20
-178 -19 -19 -33 -20 -345 -20 -312 0 -326 1 -345 20 -18 18 -20 33 -20 177 0
132 3 159 17 175 15 17 39 18 346 18 293 0 332 -2 349 -17z"/>
<path d="M743 1800 c-62 -37 -65 -129 -6 -180 97 -85 237 25 178 140 -8 16
-25 36 -37 44 -31 22 -96 20 -135 -4z"/>
<path d="M1072 1804 c-12 -8 -29 -28 -37 -44 -59 -115 81 -225 178 -140 85 74
36 200 -78 200 -22 0 -51 -7 -63 -16z"/>
<path d="M494 1791 c-37 -23 -59 -77 -49 -121 8 -36 58 -80 91 -80 24 0 24 0
24 110 0 123 -4 129 -66 91z"/>
<path d="M1390 1700 c0 -110 0 -110 24 -110 35 0 84 45 91 84 9 45 -16 101
-54 120 -59 31 -61 27 -61 -94z"/>
<path d="M472 1475 c-20 -9 -38 -27 -46 -47 -11 -26 -24 -36 -58 -46 -71 -21
-132 -73 -164 -139 l-29 -58 -3 -254 c-3 -211 -6 -256 -19 -269 -11 -11 -13
-25 -8 -51 4 -20 6 -75 5 -122 -1 -80 0 -88 21 -103 46 -32 102 -10 114 44 6
28 8 29 28 15 29 -20 60 -19 80 3 21 23 21 45 1 83 -12 24 -13 37 -5 61 9 24
8 38 -4 61 -12 24 -15 74 -15 243 l0 213 28 21 27 22 3 -335 2 -336 26 -20
c15 -12 44 -26 65 -31 l39 -11 0 -109 0 -110 -36 0 c-28 0 -44 -8 -70 -34 -32
-32 -34 -38 -34 -100 l0 -66 158 1 c100 0 170 5 192 13 l35 13 -3 64 c-1 35
-5 124 -8 197 l-6 132 187 0 187 0 -6 -133 c-3 -72 -7 -161 -8 -196 l-3 -64
35 -13 c22 -8 92 -13 193 -13 l157 -1 0 66 c0 62 -2 68 -34 100 -26 26 -42 34
-70 34 l-36 0 0 110 0 110 45 11 c29 7 54 22 70 41 l25 30 0 319 c0 175 4 319
8 319 5 0 16 -8 25 -18 15 -16 17 -47 17 -229 0 -167 -3 -216 -15 -240 -12
-23 -13 -37 -4 -61 8 -24 7 -37 -5 -61 -21 -39 -20 -64 2 -84 23 -21 51 -22
79 -2 20 14 22 13 28 -15 12 -54 68 -76 114 -44 21 15 22 23 21 103 -1 47 1
102 5 122 5 26 3 40 -8 51 -13 13 -16 58 -19 269 l-3 254 -29 58 c-32 66 -93
118 -164 139 -34 10 -47 20 -58 46 -25 61 -31 62 -551 62 -383 -1 -474 -3
-501 -15z m918 -65 c16 -16 20 -33 20 -90 l0 -70 -436 0 -436 0 4 69 c6 119
-26 111 435 111 380 0 394 -1 413 -20z m-980 -117 c0 -55 -2 -59 -32 -73 -18
-8 -41 -28 -52 -43 -20 -26 -21 -45 -24 -253 l-3 -224 -45 0 -45 0 3 238 c3
264 7 279 80 349 29 28 88 61 111 63 4 0 7 -26 7 -57z m1178 41 c47 -19 97
-67 125 -119 21 -37 22 -56 25 -277 l3 -238 -45 0 -45 0 -3 224 c-3 208 -4
227 -24 253 -11 15 -34 35 -52 43 -30 14 -32 18 -32 73 0 31 2 57 5 57 3 0 22
-7 43 -16z m-178 -292 l0 -49 -45 1 c-38 1 -49 -4 -82 -36 -22 -21 -43 -38
-49 -38 -6 0 -26 11 -44 25 -72 53 -153 57 -204 10 l-26 -24 0 79 0 80 225 0
225 0 0 -48z m-581 12 c33 -27 48 -76 37 -120 -19 -76 -120 -102 -177 -45 -25
25 -29 37 -29 81 0 44 4 56 29 81 39 39 96 40 140 3z m559 -120 c15 -11 22
-25 22 -50 l0 -34 -215 0 c-150 0 -215 3 -215 11 0 6 16 27 35 46 31 31 40 35
71 30 19 -3 54 -20 76 -36 58 -43 90 -41 144 9 49 45 51 46 82 24z m22 -318
c0 -58 -4 -79 -19 -97 -19 -24 -22 -24 -236 -27 l-216 -3 20 28 c34 49 31 104
-8 144 l-29 29 244 0 244 0 0 -74z"/>
<path d="M705 1035 c-54 -53 -19 -155 51 -155 49 0 71 14 84 55 31 93 -69 167
-135 100z"/>
</g>
</svg>
